<?xml version="1.0" encoding="UTF-8" standalone="no"?>
<!-- Created with Inkscape (http://www.inkscape.org/) -->

<svg
   xmlns:osb="http://www.openswatchbook.org/uri/2009/osb"
   xmlns:dc="http://purl.org/dc/elements/1.1/"
   xmlns:cc="http://creativecommons.org/ns#"
   xmlns:rdf="http://www.w3.org/1999/02/22-rdf-syntax-ns#"
   xmlns:svg="http://www.w3.org/2000/svg"
   xmlns="http://www.w3.org/2000/svg"
   xmlns:sodipodi="http://sodipodi.sourceforge.net/DTD/sodipodi-0.dtd"
   xmlns:inkscape="http://www.inkscape.org/namespaces/inkscape"
   width="403"
   height="448.00003"
   viewBox="0 0 402.99998 448.00003"
   id="svg2"
   version="1.1"
   inkscape:version="0.91 r13725"
   sodipodi:docname="architecture-OPT-container.svg"
   inkscape:export-filename="/home/elopez/projects/coaxis-opt/docs/diagrams/architecture-OPT-container.png"
   inkscape:export-xdpi="108"
   inkscape:export-ydpi="108">
  <title
     id="title4146">OPT architecture</title>
  <defs
     id="defs4">
    <marker
       inkscape:isstock="true"
       style="overflow:visible"
       id="marker7783"
       refX="0"
       refY="0"
       orient="auto"
       inkscape:stockid="EmptyTriangleOutM">
      <path
         inkscape:connector-curvature="0"
         transform="matrix(0.4,0,0,0.4,-1.8,0)"
         style="fill:#3465a4;fill-opacity:1;fill-rule:evenodd;stroke:#3465a4;stroke-width:1pt;stroke-opacity:1"
         d="m 5.77,0 -8.65,5 0,-10 8.65,5 z"
         id="path7785" />
    </marker>
    <marker
       inkscape:isstock="true"
       style="overflow:visible"
       id="marker7569"
       refX="0"
       refY="0"
       orient="auto"
       inkscape:stockid="EmptyTriangleInM">
      <path
         inkscape:connector-curvature="0"
         transform="matrix(-0.4,0,0,-0.4,1.8,0)"
         style="fill:#555753;fill-opacity:1;fill-rule:evenodd;stroke:#555753;stroke-width:1pt;stroke-opacity:1"
         d="m 5.77,0 -8.65,5 0,-10 8.65,5 z"
         id="path7571" />
    </marker>
    <marker
       inkscape:stockid="EmptyTriangleInM"
       orient="auto"
       refY="0"
       refX="0"
       id="marker7485"
       style="overflow:visible"
       inkscape:isstock="true">
      <path
         inkscape:connector-curvature="0"
         id="path7487"
         d="m 5.77,0 -8.65,5 0,-10 8.65,5 z"
         style="fill:#3465a4;fill-opacity:1;fill-rule:evenodd;stroke:#3465a4;stroke-width:1pt;stroke-opacity:1"
         transform="matrix(-0.4,0,0,-0.4,1.8,0)" />
    </marker>
    <marker
       inkscape:stockid="EmptyTriangleInM"
       orient="auto"
       refY="0"
       refX="0"
       id="marker7307"
       style="overflow:visible"
       inkscape:isstock="true">
      <path
         inkscape:connector-curvature="0"
         id="path7309"
         d="m 5.77,0 -8.65,5 0,-10 8.65,5 z"
         style="fill:#3465a4;fill-opacity:1;fill-rule:evenodd;stroke:#3465a4;stroke-width:1pt;stroke-opacity:1"
         transform="matrix(-0.4,0,0,-0.4,1.8,0)" />
    </marker>
    <marker
       inkscape:isstock="true"
       style="overflow:visible"
       id="marker7123"
       refX="0"
       refY="0"
       orient="auto"
       inkscape:stockid="EmptyTriangleInM">
      <path
         inkscape:connector-curvature="0"
         transform="matrix(-0.4,0,0,-0.4,1.8,0)"
         style="fill:#3465a4;fill-opacity:1;fill-rule:evenodd;stroke:#3465a4;stroke-width:1pt;stroke-opacity:1"
         d="m 5.77,0 -8.65,5 0,-10 8.65,5 z"
         id="path7125" />
    </marker>
    <marker
       inkscape:isstock="true"
       style="overflow:visible"
       id="marker7043"
       refX="0"
       refY="0"
       orient="auto"
       inkscape:stockid="EmptyTriangleInM">
      <path
         inkscape:connector-curvature="0"
         transform="matrix(-0.4,0,0,-0.4,1.8,0)"
         style="fill:#3465a4;fill-opacity:1;fill-rule:evenodd;stroke:#3465a4;stroke-width:1pt;stroke-opacity:1"
         d="m 5.77,0 -8.65,5 0,-10 8.65,5 z"
         id="path7045" />
    </marker>
    <marker
       inkscape:isstock="true"
       style="overflow:visible"
       id="marker6877"
       refX="0"
       refY="0"
       orient="auto"
       inkscape:stockid="EmptyTriangleInM">
      <path
         inkscape:connector-curvature="0"
         transform="matrix(-0.4,0,0,-0.4,1.8,0)"
         style="fill:#3465a4;fill-opacity:1;fill-rule:evenodd;stroke:#3465a4;stroke-width:1pt;stroke-opacity:1"
         d="m 5.77,0 -8.65,5 0,-10 8.65,5 z"
         id="path6879" />
    </marker>
    <marker
       inkscape:isstock="true"
       style="overflow:visible"
       id="marker6705"
       refX="0"
       refY="0"
       orient="auto"
       inkscape:stockid="EmptyTriangleInS">
      <path
         inkscape:connector-curvature="0"
         transform="matrix(-0.2,0,0,-0.2,0.6,0)"
         style="fill:#3465a4;fill-opacity:1;fill-rule:evenodd;stroke:#3465a4;stroke-width:1pt;stroke-opacity:1"
         d="m 5.77,0 -8.65,5 0,-10 8.65,5 z"
         id="path6707" />
    </marker>
    <marker
       inkscape:isstock="true"
       style="overflow:visible"
       id="marker5779"
       refX="0"
       refY="0"
       orient="auto"
       inkscape:stockid="EmptyTriangleInM">
      <path
         inkscape:connector-curvature="0"
         transform="matrix(-0.4,0,0,-0.4,1.8,0)"
         style="fill:#3465a4;fill-opacity:1;fill-rule:evenodd;stroke:#3465a4;stroke-width:1pt;stroke-opacity:1"
         d="m 5.77,0 -8.65,5 0,-10 8.65,5 z"
         id="path5781" />
    </marker>
    <linearGradient
       id="linearGradient20287"
       osb:paint="solid">
      <stop
         style="stop-color:#ffffff;stop-opacity:1;"
         offset="0"
         id="stop20289" />
    </linearGradient>
    <marker
       inkscape:stockid="EmptyTriangleInM"
       orient="auto"
       refY="0"
       refX="0"
       id="marker19678"
       style="overflow:visible"
       inkscape:isstock="true">
      <path
         id="path19680"
         d="m 5.77,0 -8.65,5 0,-10 8.65,5 z"
         style="fill:#3465a4;fill-opacity:1;fill-rule:evenodd;stroke:#3465a4;stroke-width:1pt;stroke-opacity:1"
         transform="matrix(-0.4,0,0,-0.4,1.8,0)"
         inkscape:connector-curvature="0" />
    </marker>
    <marker
       inkscape:stockid="Arrow1Mend"
       orient="auto"
       refY="0"
       refX="0"
       id="Arrow1Mend"
       style="overflow:visible"
       inkscape:isstock="true">
      <path
         id="path5833"
         d="M 0,0 5,-5 -12.5,0 5,5 0,0 Z"
         style="fill-rule:evenodd;stroke:#000000;stroke-width:1pt"
         transform="matrix(-0.4,0,0,-0.4,-4,0)"
         inkscape:connector-curvature="0" />
    </marker>
    <marker
       inkscape:stockid="Arrow1Mstart"
       orient="auto"
       refY="0"
       refX="0"
       id="Arrow1Mstart"
       style="overflow:visible"
       inkscape:isstock="true">
      <path
         id="path5830"
         d="M 0,0 5,-5 -12.5,0 5,5 0,0 Z"
         style="fill-rule:evenodd;stroke:#000000;stroke-width:1pt"
         transform="matrix(0.4,0,0,0.4,4,0)"
         inkscape:connector-curvature="0" />
    </marker>
    <marker
       inkscape:stockid="Arrow1Lend"
       orient="auto"
       refY="0"
       refX="0"
       id="Arrow1Lend"
       style="overflow:visible"
       inkscape:isstock="true">
      <path
         id="path5827"
         d="M 0,0 5,-5 -12.5,0 5,5 0,0 Z"
         style="fill-rule:evenodd;stroke:#000000;stroke-width:1pt"
         transform="matrix(-0.8,0,0,-0.8,-10,0)"
         inkscape:connector-curvature="0" />
    </marker>
    <marker
       inkscape:stockid="Arrow1Lstart"
       orient="auto"
       refY="0"
       refX="0"
       id="Arrow1Lstart"
       style="overflow:visible"
       inkscape:isstock="true">
      <path
         id="path5824"
         d="M 0,0 5,-5 -12.5,0 5,5 0,0 Z"
         style="fill-rule:evenodd;stroke:#000000;stroke-width:1pt"
         transform="matrix(0.8,0,0,0.8,10,0)"
         inkscape:connector-curvature="0" />
    </marker>
    <marker
       inkscape:stockid="EmptyTriangleOutS"
       orient="auto"
       refY="0"
       refX="0"
       id="EmptyTriangleOutS"
       style="overflow:visible"
       inkscape:isstock="true">
      <path
         id="path5990"
         d="m 5.77,0 -8.65,5 0,-10 8.65,5 z"
         style="fill:#555753;fill-opacity:1;fill-rule:evenodd;stroke:#3465a4;stroke-width:1pt;stroke-opacity:1"
         transform="matrix(0.2,0,0,0.2,-0.6,0)"
         inkscape:connector-curvature="0" />
    </marker>
    <marker
       inkscape:isstock="true"
       style="overflow:visible"
       id="marker14714"
       refX="0"
       refY="0"
       orient="auto"
       inkscape:stockid="EmptyTriangleOutM">
      <path
         transform="matrix(0.4,0,0,0.4,-1.8,0)"
         style="fill:#555753;fill-opacity:1;fill-rule:evenodd;stroke:#3465a4;stroke-width:1pt;stroke-opacity:1"
         d="m 5.77,0 -8.65,5 0,-10 8.65,5 z"
         id="path14716"
         inkscape:connector-curvature="0" />
    </marker>
    <marker
       inkscape:stockid="EmptyTriangleOutM"
       orient="auto"
       refY="0"
       refX="0"
       id="marker6084"
       style="overflow:visible"
       inkscape:isstock="true">
      <path
         id="path6086"
         d="m 5.77,0 -8.65,5 0,-10 8.65,5 z"
         style="fill:#3465a4;fill-opacity:1;fill-rule:evenodd;stroke:#3465a4;stroke-width:1pt;stroke-opacity:1"
         transform="matrix(0.4,0,0,0.4,-1.8,0)"
         inkscape:connector-curvature="0" />
    </marker>
    <marker
       inkscape:stockid="EmptyTriangleInM"
       orient="auto"
       refY="0"
       refX="0"
       id="EmptyTriangleInM"
       style="overflow:visible"
       inkscape:isstock="true"
       inkscape:collect="always">
      <path
         id="path5978"
         d="m 5.77,0 -8.65,5 0,-10 8.65,5 z"
         style="fill:#3465a4;fill-opacity:1;fill-rule:evenodd;stroke:#3465a4;stroke-width:1pt;stroke-opacity:1"
         transform="matrix(-0.4,0,0,-0.4,1.8,0)"
         inkscape:connector-curvature="0" />
    </marker>
    <marker
       inkscape:stockid="EmptyTriangleOutM"
       orient="auto"
       refY="0"
       refX="0"
       id="EmptyTriangleOutM"
       style="overflow:visible"
       inkscape:isstock="true">
      <path
         id="path5987"
         d="m 5.77,0 -8.65,5 0,-10 8.65,5 z"
         style="fill:#555753;fill-opacity:1;fill-rule:evenodd;stroke:#000000;stroke-width:1pt;stroke-opacity:1"
         transform="matrix(0.4,0,0,0.4,-1.8,0)"
         inkscape:connector-curvature="0" />
    </marker>
    <marker
       inkscape:stockid="EmptyTriangleOutM"
       orient="auto"
       refY="0"
       refX="0"
       id="marker5798"
       style="overflow:visible"
       inkscape:isstock="true">
      <path
         id="path5800"
         d="m 5.77,0 -8.65,5 0,-10 8.65,5 z"
         style="fill:#555753;fill-opacity:1;fill-rule:evenodd;stroke:#555753;stroke-width:1pt;stroke-opacity:1"
         transform="matrix(0.4,0,0,0.4,-1.8,0)"
         inkscape:connector-curvature="0" />
    </marker>
    <marker
       inkscape:stockid="EmptyTriangleInM"
       orient="auto"
       refY="0"
       refX="0"
       id="marker4501"
       style="overflow:visible"
       inkscape:isstock="true"
       inkscape:collect="always">
      <path
         id="path4503"
         d="m 5.77,0 -8.65,5 0,-10 8.65,5 z"
         style="fill:#555753;fill-opacity:1;fill-rule:evenodd;stroke:#555753;stroke-width:1pt;stroke-opacity:1"
         transform="matrix(-0.4,0,0,-0.4,1.8,0)"
         inkscape:connector-curvature="0" />
    </marker>
    <marker
       inkscape:stockid="EmptyTriangleOutL"
       orient="auto"
       refY="0"
       refX="0"
       id="EmptyTriangleOutL"
       style="overflow:visible"
       inkscape:isstock="true">
      <path
         id="path4391"
         d="m 5.77,0 -8.65,5 0,-10 8.65,5 z"
         style="fill:#ffffff;fill-rule:evenodd;stroke:#000000;stroke-width:1pt;stroke-opacity:1"
         transform="matrix(0.8,0,0,0.8,-4.8,0)"
         inkscape:connector-curvature="0" />
    </marker>
    <marker
       inkscape:stockid="TriangleOutM"
       orient="auto"
       refY="0"
       refX="0"
       id="TriangleOutM"
       style="overflow:visible"
       inkscape:isstock="true">
      <path
         id="path4376"
         d="m 5.77,0 -8.65,5 0,-10 8.65,5 z"
         style="fill:#000000;fill-opacity:1;fill-rule:evenodd;stroke:#000000;stroke-width:1pt;stroke-opacity:1"
         transform="scale(0.4,0.4)"
         inkscape:connector-curvature="0" />
    </marker>
    <marker
       inkscape:stockid="TriangleOutL"
       orient="auto"
       refY="0"
       refX="0"
       id="TriangleOutL"
       style="overflow:visible"
       inkscape:isstock="true">
      <path
         id="path4373"
         d="m 5.77,0 -8.65,5 0,-10 8.65,5 z"
         style="fill:#000000;fill-opacity:1;fill-rule:evenodd;stroke:#000000;stroke-width:1pt;stroke-opacity:1"
         transform="scale(0.8,0.8)"
         inkscape:connector-curvature="0" />
    </marker>
    <marker
       inkscape:stockid="Arrow2Lend"
       orient="auto"
       refY="0"
       refX="0"
       id="Arrow2Lend"
       style="overflow:visible"
       inkscape:isstock="true">
      <path
         id="path4252"
         style="fill:#000000;fill-opacity:1;fill-rule:evenodd;stroke:#000000;stroke-width:0.625;stroke-linejoin:round;stroke-opacity:1"
         d="M 8.7185878,4.0337352 -2.2072895,0.01601326 8.7185884,-4.0017078 c -1.7454984,2.3720609 -1.7354408,5.6174519 -6e-7,8.035443 z"
         transform="matrix(-1.1,0,0,-1.1,-1.1,0)"
         inkscape:connector-curvature="0" />
    </marker>
    <marker
       inkscape:stockid="Arrow2Mend"
       orient="auto"
       refY="0"
       refX="0"
       id="Arrow2Mend"
       style="overflow:visible"
       inkscape:isstock="true">
      <path
         id="path4258"
         style="fill:#000000;fill-opacity:1;fill-rule:evenodd;stroke:#000000;stroke-width:0.625;stroke-linejoin:round;stroke-opacity:1"
         d="M 8.7185878,4.0337352 -2.2072895,0.01601326 8.7185884,-4.0017078 c -1.7454984,2.3720609 -1.7354408,5.6174519 -6e-7,8.035443 z"
         transform="scale(-0.6,-0.6)"
         inkscape:connector-curvature="0" />
    </marker>
    <marker
       inkscape:stockid="Arrow1Sstart"
       orient="auto"
       refY="0"
       refX="0"
       id="Arrow1Sstart"
       style="overflow:visible"
       inkscape:isstock="true">
      <path
         id="path4243"
         d="M 0,0 5,-5 -12.5,0 5,5 0,0 Z"
         style="fill:#000000;fill-opacity:1;fill-rule:evenodd;stroke:#000000;stroke-width:1pt;stroke-opacity:1"
         transform="matrix(0.2,0,0,0.2,1.2,0)"
         inkscape:connector-curvature="0" />
    </marker>
    <clipPath
       id="SVGID_4_-7">
      <path
         id="use16613-2"
         d="m 8.7,24 c -1.1,0 -2.1,-0.9 -2.1,-2 0,-1.1 0.9,-2 2.1,-2 1.2,0 2.1,0.9 2.1,2 0,1.1 -1,2 -2.1,2 l 0,0 z M 34.5,13.1 C 34.3,11.5 33.3,10.2 32,9.2 L 31.5,8.8 31.1,9.3 c -0.8,0.9 -1.1,2.5 -1,3.7 0.1,0.9 0.4,1.8 0.9,2.5 -0.4,0.2 -0.9,0.4 -1.3,0.6 -0.9,0.3 -1.8,0.4 -2.7,0.4 L 1.1,16.5 1,17.1 C 0.8,19 1.1,21 1.9,22.8 l 0.4,0.7 0,0.1 c 2.4,4 6.7,5.8 11.4,5.8 9,0 16.4,-3.9 19.9,-12.3 2.3,0.1 4.6,-0.5 5.7,-2.7 l 0.3,-0.5 -0.5,-0.3 C 37.8,12.8 36,12.7 34.5,13.1 l 0,0 z m -12.9,-1.6 -3.9,0 0,3.9 3.9,0 0,-3.9 z m 0,-4.9 -3.9,0 0,3.9 3.9,0 0,-3.9 z m 0,-5 -3.9,0 0,3.9 3.9,0 0,-3.9 z m 4.8,9.9 -3.9,0 0,3.9 3.9,0 0,-3.9 z m -14.5,0 -3.9,0 0,3.9 3.9,0 0,-3.9 z m 4.9,0 -3.9,0 0,3.9 3.9,0 0,-3.9 z m -9.7,0 -3.9,0 0,3.9 3.9,0 0,-3.9 0,0 z m 9.7,-4.9 -3.9,0 0,3.9 3.9,0 0,-3.9 z m -4.9,0 -3.9,0 0,3.9 3.9,0 0,-3.9 z"
         inkscape:connector-curvature="0" />
    </clipPath>
    <filter
       inkscape:label="Opacity"
       style="color-interpolation-filters:sRGB"
       id="filter6370">
      <feColorMatrix
         values="1 0 0 0 0 0 1 0 0 0 0 0 1 0 0 0 0 0 5 -1 "
         result="colormatrix"
         id="feColorMatrix6372" />
      <feComposite
         in2="colormatrix"
         operator="arithmetic"
         k2="0.75"
         result="fbSourceGraphic"
         id="feComposite6374"
         k1="0"
         k3="0"
         k4="0" />
      <feColorMatrix
         result="fbSourceGraphicAlpha"
         in="fbSourceGraphic"
         values="0 0 0 -1 0 0 0 0 -1 0 0 0 0 -1 0 0 0 0 1 0"
         id="feColorMatrix6376" />
      <feColorMatrix
         id="feColorMatrix6378"
         values="1 0 0 0 0 0 1 0 0 0 0 0 1 0 0 0 0 0 5 -1 "
         result="colormatrix"
         in="fbSourceGraphic" />
      <feComposite
         id="feComposite6380"
         in2="colormatrix"
         operator="arithmetic"
         k2="0.51"
         result="fbSourceGraphic"
         k1="0"
         k3="0"
         k4="0" />
      <feColorMatrix
         result="fbSourceGraphicAlpha"
         in="fbSourceGraphic"
         values="0 0 0 -1 0 0 0 0 -1 0 0 0 0 -1 0 0 0 0 1 0"
         id="feColorMatrix8270" />
      <feColorMatrix
         id="feColorMatrix8272"
         values="1 0 0 0 0 0 1 0 0 0 0 0 1 0 0 0 0 0 1 -0 "
         result="colormatrix"
         in="fbSourceGraphic" />
      <feComposite
         id="feComposite8274"
         in2="colormatrix"
         operator="arithmetic"
         k2="1"
         result="composite"
         k1="0"
         k3="0"
         k4="0" />
    </filter>
    <filter
       inkscape:label="Opacity"
       style="color-interpolation-filters:sRGB"
       id="filter6370-3">
      <feColorMatrix
         values="1 0 0 0 0 0 1 0 0 0 0 0 1 0 0 0 0 0 5 -1 "
         result="colormatrix"
         id="feColorMatrix6372-6" />
      <feComposite
         k4="0"
         k3="0"
         k1="0"
         in2="colormatrix"
         operator="arithmetic"
         k2="0.75"
         result="fbSourceGraphic"
         id="feComposite6374-7" />
      <feColorMatrix
         result="fbSourceGraphicAlpha"
         in="fbSourceGraphic"
         values="0 0 0 -1 0 0 0 0 -1 0 0 0 0 -1 0 0 0 0 1 0"
         id="feColorMatrix6376-5" />
      <feColorMatrix
         id="feColorMatrix6378-3"
         values="1 0 0 0 0 0 1 0 0 0 0 0 1 0 0 0 0 0 5 -1 "
         result="colormatrix"
         in="fbSourceGraphic" />
      <feComposite
         k4="0"
         k3="0"
         k1="0"
         id="feComposite6380-5"
         in2="colormatrix"
         operator="arithmetic"
         k2="0.51"
         result="composite" />
    </filter>
    <filter
       inkscape:label="Opacity"
       style="color-interpolation-filters:sRGB"
       id="filter6606">
      <feColorMatrix
         values="1 0 0 0 0 0 1 0 0 0 0 0 1 0 0 0 0 0 5 -1 "
         result="colormatrix"
         id="feColorMatrix6608" />
      <feComposite
         k4="0"
         k3="0"
         k1="0"
         in2="colormatrix"
         operator="arithmetic"
         k2="0.75"
         result="fbSourceGraphic"
         id="feComposite6610" />
      <feColorMatrix
         result="fbSourceGraphicAlpha"
         in="fbSourceGraphic"
         values="0 0 0 -1 0 0 0 0 -1 0 0 0 0 -1 0 0 0 0 1 0"
         id="feColorMatrix6612" />
      <feColorMatrix
         id="feColorMatrix6614"
         values="1 0 0 0 0 0 1 0 0 0 0 0 1 0 0 0 0 0 5 -1 "
         result="colormatrix"
         in="fbSourceGraphic" />
      <feComposite
         k4="0"
         k3="0"
         k1="0"
         id="feComposite6616"
         in2="colormatrix"
         operator="arithmetic"
         k2="0.51"
         result="composite" />
    </filter>
    <filter
       inkscape:label="Opacity"
       style="color-interpolation-filters:sRGB"
       id="filter6618">
      <feColorMatrix
         values="1 0 0 0 0 0 1 0 0 0 0 0 1 0 0 0 0 0 5 -1 "
         result="colormatrix"
         id="feColorMatrix6620" />
      <feComposite
         k4="0"
         k3="0"
         k1="0"
         in2="colormatrix"
         operator="arithmetic"
         k2="0.75"
         result="fbSourceGraphic"
         id="feComposite6622" />
      <feColorMatrix
         result="fbSourceGraphicAlpha"
         in="fbSourceGraphic"
         values="0 0 0 -1 0 0 0 0 -1 0 0 0 0 -1 0 0 0 0 1 0"
         id="feColorMatrix6624" />
      <feColorMatrix
         id="feColorMatrix6626"
         values="1 0 0 0 0 0 1 0 0 0 0 0 1 0 0 0 0 0 5 -1 "
         result="colormatrix"
         in="fbSourceGraphic" />
      <feComposite
         k4="0"
         k3="0"
         k1="0"
         id="feComposite6628"
         in2="colormatrix"
         operator="arithmetic"
         k2="0.51"
         result="composite" />
    </filter>
  </defs>
  <sodipodi:namedview
     id="base"
     pagecolor="#ffffff"
     bordercolor="#666666"
     borderopacity="1.0"
     inkscape:pageopacity="0.0"
     inkscape:pageshadow="2"
     inkscape:zoom="2.8284271"
     inkscape:cx="123.51598"
     inkscape:cy="221.26692"
     inkscape:document-units="px"
     inkscape:current-layer="layer1"
     showgrid="true"
     units="px"
     showborder="true"
     borderlayer="false"
     guidecolor="#0000ff"
     guideopacity="0.19607843"
     guidehicolor="#ff0000"
     guidehiopacity="0.19607843"
     inkscape:window-width="1920"
     inkscape:window-height="1051"
     inkscape:window-x="0"
     inkscape:window-y="0"
     inkscape:window-maximized="1"
     inkscape:snap-nodes="true"
     inkscape:snap-object-midpoints="false"
     inkscape:snap-center="true"
     showguides="false"
     inkscape:snap-others="false"
     inkscape:snap-grids="true"
     fit-margin-top="25"
     fit-margin-left="25"
     fit-margin-right="25"
     fit-margin-bottom="25">
    <inkscape:grid
       type="xygrid"
       id="grid4144"
       enabled="true"
       visible="true"
       snapvisiblegridlinesonly="true"
       color="#0101ff"
       opacity="0.03921569"
       empcolor="#0101ff"
       empopacity="0.07843137"
       originx="-73.499997"
       originy="-243.49998" />
  </sodipodi:namedview>
  <metadata
     id="metadata7">
    <rdf:RDF>
      <cc:Work
         rdf:about="">
        <dc:format>image/svg+xml</dc:format>
        <dc:type
           rdf:resource="http://purl.org/dc/dcmitype/StillImage" />
        <dc:title>OPT architecture</dc:title>
        <cc:license
           rdf:resource="http://creativecommons.org/licenses/by-nc-sa/3.0/" />
        <dc:creator>
          <cc:Agent>
            <dc:title>Édouard Lopez</dc:title>
          </cc:Agent>
        </dc:creator>
      </cc:Work>
      <cc:License
         rdf:about="http://creativecommons.org/licenses/by-nc-sa/3.0/">
        <cc:permits
           rdf:resource="http://creativecommons.org/ns#Reproduction" />
        <cc:permits
           rdf:resource="http://creativecommons.org/ns#Distribution" />
        <cc:requires
           rdf:resource="http://creativecommons.org/ns#Notice" />
        <cc:requires
           rdf:resource="http://creativecommons.org/ns#Attribution" />
        <cc:prohibits
           rdf:resource="http://creativecommons.org/ns#CommercialUse" />
        <cc:permits
           rdf:resource="http://creativecommons.org/ns#DerivativeWorks" />
        <cc:requires
           rdf:resource="http://creativecommons.org/ns#ShareAlike" />
      </cc:License>
    </rdf:RDF>
  </metadata>
  <g
     inkscape:label="Layer 1"
     inkscape:groupmode="layer"
     id="layer1"
     transform="translate(-73.5,-360.86215)">
    <text
       xml:space="preserve"
       style="font-style:normal;font-variant:normal;font-weight:normal;font-stretch:normal;font-size:40px;line-height:125%;font-family:Roboto;-inkscape-font-specification:'Roboto, Normal';text-align:start;letter-spacing:0px;word-spacing:0px;writing-mode:lr-tb;text-anchor:start;fill:#000000;fill-opacity:1;stroke:none;stroke-width:1px;stroke-linecap:butt;stroke-linejoin:miter;stroke-opacity:1"
       x="60"
       y="432.36215"
       id="text4150"
       sodipodi:linespacing="125%"><tspan
         sodipodi:role="line"
         id="tspan4152"
         x="60"
         y="432.36215" /></text>
    <g
       style="fill:#0088b2;fill-opacity:1"
       id="g18333"
       transform="translate(19.690682,721.86218)">
      <g
         style="fill:#0088b2;fill-opacity:1"
         id="g18335">
        <title
           id="title18337">Group 3</title>
        <desc
           id="desc18339">Created with Sketch.</desc>
        <g
           style="fill:#0088b2;fill-opacity:1"
           id="g18341">
          <g
             style="fill:#0088b2;fill-opacity:1"
             id="g18343">
            <g
               style="fill:#0088b2;fill-opacity:1"
               id="g18345" />
            <g
               style="fill:#0088b2;fill-opacity:1"
               id="g18349">
              <g
                 style="fill:#0088b2;fill-opacity:1"
                 id="g18351">
                <defs
                   id="defs18353">
                  <path
                     inkscape:connector-curvature="0"
                     d="m 8.7,24 c -1.1,0 -2.1,-0.9 -2.1,-2 0,-1.1 0.9,-2 2.1,-2 1.2,0 2.1,0.9 2.1,2 0,1.1 -1,2 -2.1,2 l 0,0 z M 34.5,13.1 C 34.3,11.5 33.3,10.2 32,9.2 L 31.5,8.8 31.1,9.3 c -0.8,0.9 -1.1,2.5 -1,3.7 0.1,0.9 0.4,1.8 0.9,2.5 -0.4,0.2 -0.9,0.4 -1.3,0.6 -0.9,0.3 -1.8,0.4 -2.7,0.4 L 1.1,16.5 1,17.1 C 0.8,19 1.1,21 1.9,22.8 l 0.4,0.7 0,0.1 c 2.4,4 6.7,5.8 11.4,5.8 9,0 16.4,-3.9 19.9,-12.3 2.3,0.1 4.6,-0.5 5.7,-2.7 l 0.3,-0.5 -0.5,-0.3 C 37.8,12.8 36,12.7 34.5,13.1 l 0,0 z m -12.9,-1.6 -3.9,0 0,3.9 3.9,0 0,-3.9 z m 0,-4.9 -3.9,0 0,3.9 3.9,0 0,-3.9 z m 0,-5 -3.9,0 0,3.9 3.9,0 0,-3.9 z m 4.8,9.9 -3.9,0 0,3.9 3.9,0 0,-3.9 z m -14.5,0 -3.9,0 0,3.9 3.9,0 0,-3.9 z m 4.9,0 -3.9,0 0,3.9 3.9,0 0,-3.9 z m -9.7,0 -3.9,0 0,3.9 3.9,0 0,-3.9 0,0 z m 9.7,-4.9 -3.9,0 0,3.9 3.9,0 0,-3.9 z m -4.9,0 -3.9,0 0,3.9 3.9,0 0,-3.9 z"
                     id="path18355" />
                </defs>
                <clipPath
                   id="clipPath18357">
                  <path
                     id="use18359"
                     d="m 8.7,24 c -1.1,0 -2.1,-0.9 -2.1,-2 0,-1.1 0.9,-2 2.1,-2 1.2,0 2.1,0.9 2.1,2 0,1.1 -1,2 -2.1,2 l 0,0 z M 34.5,13.1 C 34.3,11.5 33.3,10.2 32,9.2 L 31.5,8.8 31.1,9.3 c -0.8,0.9 -1.1,2.5 -1,3.7 0.1,0.9 0.4,1.8 0.9,2.5 -0.4,0.2 -0.9,0.4 -1.3,0.6 -0.9,0.3 -1.8,0.4 -2.7,0.4 L 1.1,16.5 1,17.1 C 0.8,19 1.1,21 1.9,22.8 l 0.4,0.7 0,0.1 c 2.4,4 6.7,5.8 11.4,5.8 9,0 16.4,-3.9 19.9,-12.3 2.3,0.1 4.6,-0.5 5.7,-2.7 l 0.3,-0.5 -0.5,-0.3 C 37.8,12.8 36,12.7 34.5,13.1 l 0,0 z m -12.9,-1.6 -3.9,0 0,3.9 3.9,0 0,-3.9 z m 0,-4.9 -3.9,0 0,3.9 3.9,0 0,-3.9 z m 0,-5 -3.9,0 0,3.9 3.9,0 0,-3.9 z m 4.8,9.9 -3.9,0 0,3.9 3.9,0 0,-3.9 z m -14.5,0 -3.9,0 0,3.9 3.9,0 0,-3.9 z m 4.9,0 -3.9,0 0,3.9 3.9,0 0,-3.9 z m -9.7,0 -3.9,0 0,3.9 3.9,0 0,-3.9 0,0 z m 9.7,-4.9 -3.9,0 0,3.9 3.9,0 0,-3.9 z m -4.9,0 -3.9,0 0,3.9 3.9,0 0,-3.9 z"
                     inkscape:connector-curvature="0" />
                </clipPath>
                <g
                   style="fill:#0088b2;fill-opacity:1"
                   clip-path="url(#SVGID_4_)"
                   id="g18361"
                   class="st1" />
              </g>
            </g>
          </g>
        </g>
      </g>
    </g>
    <g
       transform="translate(120,-80)"
       id="g20836"
       style="opacity:0.5" />
    <g
       id="g20814"
       transform="translate(-320,0)">
      <rect
         ry="0"
         y="387.36215"
         x="420"
         height="395.00003"
         width="350"
         id="rect4247"
         style="fill:#ffffff;fill-opacity:1;stroke:#babdb6;stroke-width:3;stroke-linecap:butt;stroke-miterlimit:4;stroke-dasharray:none;stroke-opacity:1" />
      <g
         transform="translate(-4e-6,61.800002)"
         id="g20282">
        <g
           id="use18375"
           transform="translate(423.56001,328.46215)"
           style="fill:#0088b2;fill-opacity:1">
          <g
             id="g9314"
             style="fill:#0088b2;fill-opacity:1">
            <g
               id="g9316"
               style="fill:#0088b2;fill-opacity:1">
              <title
                 id="title9318">Group 3</title>
              <desc
                 id="desc9320">Created with Sketch.</desc>
              <g
                 id="g9322"
                 style="fill:#0088b2;fill-opacity:1">
                <g
                   id="g9324"
                   style="fill:#0088b2;fill-opacity:1">
                  <g
                     id="g9326"
                     style="fill:#0088b2;fill-opacity:1">
                    <path
                       id="path9328"
                       class="st0"
                       d="m 8.7,24 c -1.1,0 -2.1,-0.9 -2.1,-2 0,-1.1 0.9,-2 2.1,-2 1.2,0 2.1,0.9 2.1,2 0,1.1 -1,2 -2.1,2 l 0,0 z M 34.5,13.1 C 34.3,11.5 33.3,10.2 32,9.2 L 31.5,8.8 31.1,9.3 c -0.8,0.9 -1.1,2.5 -1,3.7 0.1,0.9 0.4,1.8 0.9,2.5 -0.4,0.2 -0.9,0.4 -1.3,0.6 -0.9,0.3 -1.8,0.4 -2.7,0.4 L 1.1,16.5 1,17.1 C 0.8,19 1.1,21 1.9,22.8 l 0.4,0.7 0,0.1 c 2.4,4 6.7,5.8 11.4,5.8 9,0 16.4,-3.9 19.9,-12.3 2.3,0.1 4.6,-0.5 5.7,-2.7 l 0.3,-0.5 -0.5,-0.3 C 37.8,12.8 36,12.7 34.5,13.1 l 0,0 z m -12.9,-1.6 -3.9,0 0,3.9 3.9,0 0,-3.9 z m 0,-4.9 -3.9,0 0,3.9 3.9,0 0,-3.9 z m 0,-5 -3.9,0 0,3.9 3.9,0 0,-3.9 z m 4.8,9.9 -3.9,0 0,3.9 3.9,0 0,-3.9 z m -14.5,0 -3.9,0 0,3.9 3.9,0 0,-3.9 z m 4.9,0 -3.9,0 0,3.9 3.9,0 0,-3.9 z m -9.7,0 -3.9,0 0,3.9 3.9,0 0,-3.9 0,0 z m 9.7,-4.9 -3.9,0 0,3.9 3.9,0 0,-3.9 z m -4.9,0 -3.9,0 0,3.9 3.9,0 0,-3.9 z"
                       inkscape:connector-curvature="0"
                       style="fill:#0088b2;fill-opacity:1" />
                  </g>
                  <g
                     id="g9330"
                     style="fill:#0088b2;fill-opacity:1">
                    <g
                       id="g9332"
                       style="fill:#0088b2;fill-opacity:1">
                      <defs
                         id="defs9334">
                        <path
                           id="path9336"
                           d="m 8.7,24 c -1.1,0 -2.1,-0.9 -2.1,-2 0,-1.1 0.9,-2 2.1,-2 1.2,0 2.1,0.9 2.1,2 0,1.1 -1,2 -2.1,2 l 0,0 z M 34.5,13.1 C 34.3,11.5 33.3,10.2 32,9.2 L 31.5,8.8 31.1,9.3 c -0.8,0.9 -1.1,2.5 -1,3.7 0.1,0.9 0.4,1.8 0.9,2.5 -0.4,0.2 -0.9,0.4 -1.3,0.6 -0.9,0.3 -1.8,0.4 -2.7,0.4 L 1.1,16.5 1,17.1 C 0.8,19 1.1,21 1.9,22.8 l 0.4,0.7 0,0.1 c 2.4,4 6.7,5.8 11.4,5.8 9,0 16.4,-3.9 19.9,-12.3 2.3,0.1 4.6,-0.5 5.7,-2.7 l 0.3,-0.5 -0.5,-0.3 C 37.8,12.8 36,12.7 34.5,13.1 l 0,0 z m -12.9,-1.6 -3.9,0 0,3.9 3.9,0 0,-3.9 z m 0,-4.9 -3.9,0 0,3.9 3.9,0 0,-3.9 z m 0,-5 -3.9,0 0,3.9 3.9,0 0,-3.9 z m 4.8,9.9 -3.9,0 0,3.9 3.9,0 0,-3.9 z m -14.5,0 -3.9,0 0,3.9 3.9,0 0,-3.9 z m 4.9,0 -3.9,0 0,3.9 3.9,0 0,-3.9 z m -9.7,0 -3.9,0 0,3.9 3.9,0 0,-3.9 0,0 z m 9.7,-4.9 -3.9,0 0,3.9 3.9,0 0,-3.9 z m -4.9,0 -3.9,0 0,3.9 3.9,0 0,-3.9 z"
                           inkscape:connector-curvature="0" />
                      </defs>
                      <clipPath
                         id="clipPath9338">
                        <path
                           id="use9340"
                           d="m 8.7,24 c -1.1,0 -2.1,-0.9 -2.1,-2 0,-1.1 0.9,-2 2.1,-2 1.2,0 2.1,0.9 2.1,2 0,1.1 -1,2 -2.1,2 l 0,0 z M 34.5,13.1 C 34.3,11.5 33.3,10.2 32,9.2 L 31.5,8.8 31.1,9.3 c -0.8,0.9 -1.1,2.5 -1,3.7 0.1,0.9 0.4,1.8 0.9,2.5 -0.4,0.2 -0.9,0.4 -1.3,0.6 -0.9,0.3 -1.8,0.4 -2.7,0.4 L 1.1,16.5 1,17.1 C 0.8,19 1.1,21 1.9,22.8 l 0.4,0.7 0,0.1 c 2.4,4 6.7,5.8 11.4,5.8 9,0 16.4,-3.9 19.9,-12.3 2.3,0.1 4.6,-0.5 5.7,-2.7 l 0.3,-0.5 -0.5,-0.3 C 37.8,12.8 36,12.7 34.5,13.1 l 0,0 z m -12.9,-1.6 -3.9,0 0,3.9 3.9,0 0,-3.9 z m 0,-4.9 -3.9,0 0,3.9 3.9,0 0,-3.9 z m 0,-5 -3.9,0 0,3.9 3.9,0 0,-3.9 z m 4.8,9.9 -3.9,0 0,3.9 3.9,0 0,-3.9 z m -14.5,0 -3.9,0 0,3.9 3.9,0 0,-3.9 z m 4.9,0 -3.9,0 0,3.9 3.9,0 0,-3.9 z m -9.7,0 -3.9,0 0,3.9 3.9,0 0,-3.9 0,0 z m 9.7,-4.9 -3.9,0 0,3.9 3.9,0 0,-3.9 z m -4.9,0 -3.9,0 0,3.9 3.9,0 0,-3.9 z"
                           inkscape:connector-curvature="0" />
                      </clipPath>
                      <g
                         class="st1"
                         id="g9342"
                         clip-path="url(#SVGID_4_)"
                         style="fill:#0088b2;fill-opacity:1" />
                    </g>
                  </g>
                </g>
              </g>
            </g>
          </g>
        </g>
        <text
           xml:space="preserve"
           style="font-style:normal;font-variant:normal;font-weight:normal;font-stretch:normal;font-size:15px;line-height:125%;font-family:Roboto;-inkscape-font-specification:'Roboto, Normal';text-align:start;letter-spacing:0px;word-spacing:0px;writing-mode:lr-tb;text-anchor:start;fill:#000000;fill-opacity:1;stroke:none;stroke-width:1px;stroke-linecap:butt;stroke-linejoin:miter;stroke-opacity:1"
           x="467.43149"
           y="354.62622"
           id="text18443"
           sodipodi:linespacing="125%"><tspan
             sodipodi:role="line"
             id="tspan18445"
             x="467.43149"
             y="354.62622"
             style="font-size:30px;fill:#babdb6">OPT: <tspan
   id="tspan20810"
   style="font-style:italic;fill:#babdb6">clientA</tspan></tspan></text>
      </g>
    </g>
    <g
       id="g21023"
       transform="translate(-320,0)">
      <text
         xml:space="preserve"
         style="font-style:normal;font-variant:normal;font-weight:normal;font-stretch:normal;font-size:30px;line-height:125%;font-family:Roboto;-inkscape-font-specification:'Roboto, Normal';text-align:start;letter-spacing:0px;word-spacing:0px;writing-mode:lr-tb;text-anchor:start;fill:#009900;fill-opacity:1;stroke:none;stroke-width:1px;stroke-linecap:butt;stroke-linejoin:miter;stroke-opacity:1"
         x="525.76416"
         y="746.07855"
         id="text5713"
         sodipodi:linespacing="125%"><tspan
           sodipodi:role="line"
           id="tspan5715"
           x="525.76416"
           y="746.07855">Proxy web</tspan></text>
      <rect
         style="fill:none;fill-opacity:1;stroke:#009900;stroke-width:3;stroke-linecap:butt;stroke-miterlimit:4;stroke-dasharray:none;stroke-opacity:1"
         id="rect5711"
         width="250"
         height="50"
         x="470"
         y="713.02924" />
    </g>
    <g
       id="g21084"
       transform="translate(-320,0)">
      <text
         xml:space="preserve"
         style="font-style:normal;font-variant:normal;font-weight:normal;font-stretch:normal;font-size:20px;line-height:125%;font-family:Roboto;-inkscape-font-specification:'Roboto, Normal';text-align:start;letter-spacing:0px;word-spacing:0px;writing-mode:lr-tb;text-anchor:start;fill:#000000;fill-opacity:1;stroke:none;stroke-width:1px;stroke-linecap:butt;stroke-linejoin:miter;stroke-opacity:1"
         x="602.02637"
         y="627.59387"
         id="text5739"
         sodipodi:linespacing="125%"><tspan
           sodipodi:role="line"
           id="tspan5741"
           x="602.02637"
           y="627.59387"
           style="fill:#555753">API</tspan></text>
      <path
         inkscape:connector-curvature="0"
         sodipodi:nodetypes="cc"
         id="path5818"
         d="m 595,594.8311 0,51.30675"
         style="fill:#3465a4;fill-rule:evenodd;stroke:#3465a4;stroke-width:3;stroke-linecap:butt;stroke-linejoin:miter;stroke-miterlimit:4;stroke-dasharray:6, 6;stroke-dashoffset:0;stroke-opacity:1;marker-start:url(#EmptyTriangleInM);marker-end:url(#marker6084)" />
    </g>
    <g
       id="g21028"
       transform="translate(-320,0)">
      <text
         xml:space="preserve"
         style="font-style:normal;font-variant:normal;font-weight:normal;font-stretch:normal;font-size:30px;line-height:125%;font-family:Roboto;-inkscape-font-specification:'Roboto, Normal';text-align:start;letter-spacing:0px;word-spacing:0px;writing-mode:lr-tb;text-anchor:start;fill:#41b883;fill-opacity:1;stroke:none;stroke-width:1px;stroke-linecap:butt;stroke-linejoin:miter;stroke-opacity:1"
         x="535.37354"
         y="686.48315"
         id="text4151-4"
         sodipodi:linespacing="125%"><tspan
           sodipodi:role="line"
           id="tspan4153-5"
           x="535.37354"
           y="686.48315">Frontend</tspan></text>
      <rect
         style="fill:none;fill-opacity:1;stroke:#41b883;stroke-width:3;stroke-linecap:butt;stroke-miterlimit:4;stroke-dasharray:none;stroke-opacity:1"
         id="rect4149-6"
         width="250"
         height="50"
         x="470"
         y="650.37964" />
    </g>
    <g
       id="g21033"
       transform="translate(-320,7.1811568e-6)">
      <g
         id="g5182">
        <rect
           y="547.34259"
           x="470"
           height="42.94381"
           width="250"
           id="rect5721"
           style="fill:none;fill-opacity:1;stroke:#0c4b33;stroke-width:3;stroke-linecap:butt;stroke-miterlimit:4;stroke-dasharray:none;stroke-opacity:1" />
      </g>
      <text
         xml:space="preserve"
         style="font-style:normal;font-variant:normal;font-weight:normal;font-stretch:normal;font-size:30px;line-height:125%;font-family:Roboto;-inkscape-font-specification:'Roboto, Normal';text-align:start;letter-spacing:0px;word-spacing:0px;writing-mode:lr-tb;text-anchor:start;fill:#0c4b33;fill-opacity:1;stroke:none;stroke-width:1px;stroke-linecap:butt;stroke-linejoin:miter;stroke-opacity:1"
         x="537.16064"
         y="579.91803"
         id="text5723"
         sodipodi:linespacing="125%"><tspan
           sodipodi:role="line"
           id="tspan5725"
           x="537.16064"
           y="579.91803">Backend</tspan></text>
    </g>
    <path
       style="opacity:0.98000004;fill:#555753;fill-rule:evenodd;stroke:#555753;stroke-width:3;stroke-linecap:butt;stroke-linejoin:miter;stroke-miterlimit:4;stroke-dasharray:3, 6;stroke-dashoffset:0;stroke-opacity:1;marker-start:url(#marker7569)"
       d="m 219.42764,494.80086 0,47.75472"
       id="path6198"
       inkscape:connector-type="polyline"
       inkscape:connector-curvature="0"
       sodipodi:nodetypes="cc" />
    <g
       id="g21038"
       transform="translate(-320,0)">
      <rect
         style="fill:none;fill-opacity:1;stroke:#555753;stroke-width:2.5;stroke-linecap:butt;stroke-miterlimit:4;stroke-dasharray:none;stroke-opacity:1"
         id="rect4253"
         width="139.35529"
         height="39.573395"
         x="469.75"
         y="450.69046" />
      <text
         xml:space="preserve"
         style="font-style:normal;font-variant:normal;font-weight:normal;font-stretch:normal;font-size:30px;line-height:125%;font-family:Roboto;-inkscape-font-specification:'Roboto, Normal';text-align:start;letter-spacing:0px;word-spacing:0px;writing-mode:lr-tb;text-anchor:start;fill:#555753;fill-opacity:1;stroke:none;stroke-width:1px;stroke-linecap:butt;stroke-linejoin:miter;stroke-opacity:1"
         x="477.9335"
         y="477.87949"
         id="text4255"
         sodipodi:linespacing="125%"><tspan
           sodipodi:role="line"
           id="tspan4257"
           x="477.9335"
           y="477.87949"
           style="font-size:20px">mast daemon</tspan></text>
    </g>
    <g
       id="g21043"
       transform="translate(-319.99998,0)">
      <rect
         y="450.69049"
         x="615.25"
         height="39.573364"
         width="104.99998"
         id="rect4269"
         style="fill:none;fill-opacity:1;stroke:#555753;stroke-width:2.5;stroke-linecap:butt;stroke-miterlimit:4;stroke-dasharray:none;stroke-opacity:1" />
      <text
         sodipodi:linespacing="125%"
         id="text4271"
         y="477.87952"
         x="623.67773"
         style="font-style:normal;font-variant:normal;font-weight:normal;font-stretch:normal;font-size:30px;line-height:125%;font-family:Roboto;-inkscape-font-specification:'Roboto, Normal';text-align:start;letter-spacing:0px;word-spacing:0px;writing-mode:lr-tb;text-anchor:start;fill:#555753;fill-opacity:1;stroke:none;stroke-width:1px;stroke-linecap:butt;stroke-linejoin:miter;stroke-opacity:1"
         xml:space="preserve"><tspan
           style="font-size:20px"
           y="477.87952"
           x="623.67773"
           id="tspan4273"
           sodipodi:role="line">mast utils</tspan></text>
    </g>
    <path
       sodipodi:nodetypes="cc"
       inkscape:connector-curvature="0"
       inkscape:connector-type="polyline"
       id="path19412"
       d="m 347.75001,494.80086 0,47.75472"
       style="opacity:0.98000004;fill:#555753;fill-rule:evenodd;stroke:#555753;stroke-width:3;stroke-linecap:butt;stroke-linejoin:miter;stroke-miterlimit:4;stroke-dasharray:3, 6;stroke-dashoffset:0;stroke-opacity:1;marker-start:url(#marker4501)" />
    <g
       inkscape:transform-center-y="28.140219"
       inkscape:transform-center-x="-70.984258"
       id="g5363"
       transform="matrix(0.93969262,0.34202014,-0.34202014,0.93969262,211.74992,-200.71925)" />
    <g
       id="g5928" />
    <text
       xml:space="preserve"
       style="font-style:normal;font-variant:normal;font-weight:normal;font-stretch:normal;font-size:20px;line-height:125%;font-family:Roboto;-inkscape-font-specification:'Roboto, Normal';text-align:start;letter-spacing:0px;word-spacing:0px;writing-mode:lr-tb;text-anchor:start;fill:#000000;fill-opacity:1;stroke:none;stroke-width:1px;stroke-linecap:butt;stroke-linejoin:miter;stroke-opacity:1"
       x="495"
       y="447.36215"
       id="text8793"
       sodipodi:linespacing="125%"><tspan
         sodipodi:role="line"
         id="tspan8795"
         x="495"
         y="447.36215" /></text>
    <text
       xml:space="preserve"
       style="font-style:normal;font-variant:normal;font-weight:normal;font-stretch:normal;font-size:20px;line-height:0%;font-family:Roboto;-inkscape-font-specification:'Roboto, Normal';text-align:start;letter-spacing:0px;word-spacing:0px;writing-mode:lr-tb;text-anchor:start;fill:#babdb6;fill-opacity:1;stroke:none;stroke-width:1px;stroke-linecap:butt;stroke-linejoin:miter;stroke-opacity:1"
       x="225.69473"
       y="522.71863"
       id="text6119"
       sodipodi:linespacing="0%"><tspan
         sodipodi:role="line"
         id="tspan6121"
         x="225.69473"
         y="522.71863"
         style="font-size:15px;fill:#babdb6">invoke</tspan></text>
    <text
       xml:space="preserve"
       style="font-style:normal;font-variant:normal;font-weight:normal;font-stretch:normal;font-size:20px;line-height:0%;font-family:Roboto;-inkscape-font-specification:'Roboto, Normal';text-align:start;letter-spacing:0px;word-spacing:0px;writing-mode:lr-tb;text-anchor:start;fill:#babdb6;fill-opacity:1;stroke:none;stroke-width:1px;stroke-linecap:butt;stroke-linejoin:miter;stroke-opacity:1"
       x="354.01709"
       y="522.71863"
       id="text6119-0"
       sodipodi:linespacing="0%"><tspan
         sodipodi:role="line"
         id="tspan6121-2"
         x="354.01709"
         y="522.71863"
         style="font-size:15px;fill:#babdb6">invoke</tspan></text>
  </g>
  <style
     id="style16586"
     type="text/css">
	.st0{fill:#FFFFFF;}
	.st1{clip-path:url(#SVGID_4_);}
</style>
  <style
     id="style16586-7"
     type="text/css">
	.st0{fill:#FFFFFF;}
	.st1{clip-path:url(#SVGID_4_);}
</style>
</svg>
