<?xml version="1.0" encoding="UTF-8" standalone="no"?>
<!-- Generator: Adobe Illustrator 19.2.1, SVG Export Plug-In . SVG Version: 6.00 Build 0)  -->

<svg
   xmlns:dc="http://purl.org/dc/elements/1.1/"
   xmlns:cc="http://creativecommons.org/ns#"
   xmlns:rdf="http://www.w3.org/1999/02/22-rdf-syntax-ns#"
   xmlns:svg="http://www.w3.org/2000/svg"
   xmlns="http://www.w3.org/2000/svg"
   xmlns:xlink="http://www.w3.org/1999/xlink"
   xmlns:sodipodi="http://sodipodi.sourceforge.net/DTD/sodipodi-0.dtd"
   xmlns:inkscape="http://www.inkscape.org/namespaces/inkscape"
   version="1.1"
   id="Layer_1"
   x="0px"
   y="0px"
   viewBox="0 0 40.66 29.799999"
   xml:space="preserve"
   inkscape:version="0.91 r13725"
   sodipodi:docname="brand-full.svg"
   width="40.66"
   height="29.799999"><metadata
     id="metadata16627"><rdf:RDF><cc:Work
         rdf:about=""><dc:format>image/svg+xml</dc:format><dc:type
           rdf:resource="http://purl.org/dc/dcmitype/StillImage" /><dc:title /></cc:Work></rdf:RDF></metadata><defs
     id="defs16625" /><sodipodi:namedview
     pagecolor="#ffffff"
     bordercolor="#666666"
     borderopacity="1"
     objecttolerance="10"
     gridtolerance="10"
     guidetolerance="10"
     inkscape:pageopacity="0"
     inkscape:pageshadow="2"
     inkscape:window-width="1920"
     inkscape:window-height="1051"
     id="namedview16623"
     showgrid="false"
     fit-margin-top="1"
     fit-margin-left="1"
     fit-margin-right="1"
     fit-margin-bottom="1"
     showborder="true"
     inkscape:zoom="5.077551"
     inkscape:cx="-13.320727"
     inkscape:cy="39.763162"
     inkscape:window-x="0"
     inkscape:window-y="0"
     inkscape:window-maximized="1"
     inkscape:current-layer="Layer_1" /><style
     type="text/css"
     id="style16586">
	.st0{fill:#FFFFFF;}
	.st1{clip-path:url(#SVGID_4_);}
</style><g
     id="g16588"
     transform="translate(0.06,-0.6)"
     style="fill:#ffffff;fill-opacity:1"><g
       id="g16590"
       style="fill:#ffffff;fill-opacity:1"><g
         id="g16592"
         style="fill:#ffffff;fill-opacity:1"><title
           id="title16594">Group 3</title><desc
           id="desc16596">Created with Sketch.</desc><g
           id="g16598"
           style="fill:#ffffff;fill-opacity:1"><g
             id="g16600"
             style="fill:#ffffff;fill-opacity:1"><g
               id="g16602"
               style="fill:#ffffff;fill-opacity:1"><path
                 id="SVGID_1_"
                 class="st0"
                 d="m 8.7,24 c -1.1,0 -2.1,-0.9 -2.1,-2 0,-1.1 0.9,-2 2.1,-2 1.2,0 2.1,0.9 2.1,2 0,1.1 -1,2 -2.1,2 l 0,0 z M 34.5,13.1 C 34.3,11.5 33.3,10.2 32,9.2 L 31.5,8.8 31.1,9.3 c -0.8,0.9 -1.1,2.5 -1,3.7 0.1,0.9 0.4,1.8 0.9,2.5 -0.4,0.2 -0.9,0.4 -1.3,0.6 -0.9,0.3 -1.8,0.4 -2.7,0.4 L 1.1,16.5 1,17.1 C 0.8,19 1.1,21 1.9,22.8 l 0.4,0.7 0,0.1 c 2.4,4 6.7,5.8 11.4,5.8 9,0 16.4,-3.9 19.9,-12.3 2.3,0.1 4.6,-0.5 5.7,-2.7 l 0.3,-0.5 -0.5,-0.3 C 37.8,12.8 36,12.7 34.5,13.1 l 0,0 z m -12.9,-1.6 -3.9,0 0,3.9 3.9,0 0,-3.9 z m 0,-4.9 -3.9,0 0,3.9 3.9,0 0,-3.9 z m 0,-5 -3.9,0 0,3.9 3.9,0 0,-3.9 z m 4.8,9.9 -3.9,0 0,3.9 3.9,0 0,-3.9 z m -14.5,0 -3.9,0 0,3.9 3.9,0 0,-3.9 z m 4.9,0 -3.9,0 0,3.9 3.9,0 0,-3.9 z m -9.7,0 -3.9,0 0,3.9 3.9,0 0,-3.9 0,0 z m 9.7,-4.9 -3.9,0 0,3.9 3.9,0 0,-3.9 z m -4.9,0 -3.9,0 0,3.9 3.9,0 0,-3.9 z"
                 inkscape:connector-curvature="0"
                 style="fill:#ffffff;fill-opacity:1" /></g><g
               id="g16605"
               style="fill:#ffffff;fill-opacity:1"><g
                 id="g16607"
                 style="fill:#ffffff;fill-opacity:1"><defs
                   id="defs16609"><path
                     id="SVGID_2_"
                     d="m 8.7,24 c -1.1,0 -2.1,-0.9 -2.1,-2 0,-1.1 0.9,-2 2.1,-2 1.2,0 2.1,0.9 2.1,2 0,1.1 -1,2 -2.1,2 l 0,0 z M 34.5,13.1 C 34.3,11.5 33.3,10.2 32,9.2 L 31.5,8.8 31.1,9.3 c -0.8,0.9 -1.1,2.5 -1,3.7 0.1,0.9 0.4,1.8 0.9,2.5 -0.4,0.2 -0.9,0.4 -1.3,0.6 -0.9,0.3 -1.8,0.4 -2.7,0.4 L 1.1,16.5 1,17.1 C 0.8,19 1.1,21 1.9,22.8 l 0.4,0.7 0,0.1 c 2.4,4 6.7,5.8 11.4,5.8 9,0 16.4,-3.9 19.9,-12.3 2.3,0.1 4.6,-0.5 5.7,-2.7 l 0.3,-0.5 -0.5,-0.3 C 37.8,12.8 36,12.7 34.5,13.1 l 0,0 z m -12.9,-1.6 -3.9,0 0,3.9 3.9,0 0,-3.9 z m 0,-4.9 -3.9,0 0,3.9 3.9,0 0,-3.9 z m 0,-5 -3.9,0 0,3.9 3.9,0 0,-3.9 z m 4.8,9.9 -3.9,0 0,3.9 3.9,0 0,-3.9 z m -14.5,0 -3.9,0 0,3.9 3.9,0 0,-3.9 z m 4.9,0 -3.9,0 0,3.9 3.9,0 0,-3.9 z m -9.7,0 -3.9,0 0,3.9 3.9,0 0,-3.9 0,0 z m 9.7,-4.9 -3.9,0 0,3.9 3.9,0 0,-3.9 z m -4.9,0 -3.9,0 0,3.9 3.9,0 0,-3.9 z"
                     inkscape:connector-curvature="0" /></defs><clipPath
                   id="SVGID_4_"><use
                     xlink:href="#SVGID_2_"
                     style="overflow:visible"
                     id="use16613"
                     x="0"
                     y="0"
                     width="100%"
                     height="100%" /></clipPath><g
                   class="st1"
                   id="g16615"
                   clip-path="url(#SVGID_4_)"
                   style="fill:#ffffff;fill-opacity:1" /></g></g></g></g></g></g></g></svg>